<svg width="36" height="36" viewBox="0 0 36 36" fill="none" xmlns="http://www.w3.org/2000/svg">
<path d="M18.1609 13.4016C15.5494 13.4016 13.4683 15.5112 13.4683 18.0669C13.4683 20.6633 15.5494 22.7323 18.1609 22.7323C20.7317 22.7323 22.8536 20.6633 22.8536 18.0669C22.8536 15.5112 20.7317 13.4016 18.1609 13.4016ZM18.1609 21.1095C16.4879 21.1095 15.1005 19.7708 15.1005 18.0669C15.1005 16.4037 16.4471 15.0649 18.1609 15.0649C19.834 15.0649 21.1806 16.4037 21.1806 18.0669C21.1806 19.7708 19.834 21.1095 18.1609 21.1095ZM24.1186 13.2394C24.1186 13.8479 23.6289 14.3347 23.0168 14.3347C22.4047 14.3347 21.9151 13.8479 21.9151 13.2394C21.9151 12.6308 22.4047 12.144 23.0168 12.144C23.6289 12.144 24.1186 12.6308 24.1186 13.2394ZM27.2198 14.3347C27.1382 12.8742 26.8118 11.5761 25.7508 10.5213C24.6899 9.46653 23.3841 9.14199 21.9151 9.06085C20.4053 8.97972 15.8758 8.97972 14.366 9.06085C12.897 9.14199 11.632 9.46653 10.5302 10.5213C9.46928 11.5761 9.14282 12.8742 9.06121 14.3347C8.9796 15.8357 8.9796 20.3387 9.06121 21.8398C9.14282 23.3002 9.46928 24.5578 10.5302 25.6531C11.632 26.7079 12.897 27.0325 14.366 27.1136C15.8758 27.1947 20.4053 27.1947 21.9151 27.1136C23.3841 27.0325 24.6899 26.7079 25.7508 25.6531C26.8118 24.5578 27.1382 23.3002 27.2198 21.8398C27.3015 20.3387 27.3015 15.8357 27.2198 14.3347ZM25.2612 23.4219C24.9755 24.2333 24.3226 24.8418 23.5473 25.1663C22.3231 25.6531 19.4667 25.5314 18.1609 25.5314C16.8143 25.5314 13.9579 25.6531 12.7746 25.1663C11.9584 24.8418 11.3464 24.2333 11.0199 23.4219C10.5302 22.2454 10.6526 19.4057 10.6526 18.0669C10.6526 16.7688 10.5302 13.929 11.0199 12.712C11.3464 11.9412 11.9584 11.3327 12.7746 11.0081C13.9579 10.5213 16.8143 10.643 18.1609 10.643C19.4667 10.643 22.3231 10.5213 23.5473 11.0081C24.3226 11.2921 24.9347 11.9412 25.2612 12.712C25.7508 13.929 25.6284 16.7688 25.6284 18.0669C25.6284 19.4057 25.7508 22.2454 25.2612 23.4219Z" fill="white"/>
</svg>
