<svg width="36" height="36" viewBox="0 0 36 36" fill="none" xmlns="http://www.w3.org/2000/svg">
<path d="M26.7299 14.1785C26.7299 14.3813 26.7299 14.5436 26.7299 14.7465C26.7299 20.3854 22.4453 26.8357 14.5698 26.8357C12.1214 26.8357 9.87707 26.146 8 24.929C8.32645 24.9696 8.6529 25.0101 9.02015 25.0101C11.0196 25.0101 12.8559 24.3205 14.3249 23.1846C12.4478 23.144 10.8564 21.927 10.3259 20.2231C10.6116 20.2637 10.8564 20.3043 11.1421 20.3043C11.5093 20.3043 11.9174 20.2231 12.2438 20.142C10.2851 19.7363 8.81612 18.0325 8.81612 15.9635V15.9229C9.3874 16.2475 10.0811 16.4097 10.7748 16.4503C9.59143 15.6795 8.85693 14.3813 8.85693 12.9209C8.85693 12.1095 9.06095 11.3793 9.42821 10.7708C11.5501 13.3266 14.733 15.0304 18.2831 15.2333C18.2015 14.9087 18.1607 14.5842 18.1607 14.2596C18.1607 11.9067 20.0786 10 22.4453 10C23.6695 10 24.7712 10.4868 25.5873 11.3387C26.5259 11.1359 27.4644 10.7708 28.2805 10.284C27.9541 11.2982 27.3012 12.1095 26.4035 12.6369C27.2604 12.5558 28.1173 12.3124 28.8518 11.9878C28.2805 12.8398 27.546 13.57 26.7299 14.1785Z" fill="white"/>
</svg>
